<?xml version="1.0" encoding="utf-8" ?><svg xmlns="http://www.w3.org/2000/svg" xmlns:xlink="http://www.w3.org/1999/xlink" width="2048" height="2048" viewBox="0 0 2048 2048"><path fill="white" d="M0 0L2048 0L2048 2048L0 2048L0 0Z"/><path fill="#063648" d="M972.836 343.437C987.737 342.36 1010.67 343.326 1025.77 345.099C1100.83 353.913 1173.09 385.279 1231.61 432.958C1248.55 446.764 1264.87 460.933 1278.55 478.138C1300.11 473.914 1317.68 472.245 1339.9 475.442C1414.42 486.16 1480.95 541.384 1525.55 599.652C1578.2 668.434 1613.4 760.684 1602.59 848.01C1593.94 917.867 1543.38 970.897 1487.48 1008.45C1477.87 1014.91 1458.4 1022.91 1451.81 1028.41C1441.75 1036.81 1429.5 1048.35 1419.24 1057.25C1398.82 1074.8 1377.82 1091.64 1356.26 1107.76C1374.76 1150.78 1382.14 1184.66 1385.65 1231.06C1406.8 1220.46 1425.58 1203 1441.48 1185.67C1447.51 1179.09 1455.05 1160.47 1466.38 1167.03C1471.23 1174.04 1469.31 1184.24 1467.4 1192.04C1459.18 1225.71 1442.73 1258.68 1420.82 1285.16C1479.48 1304.44 1515.19 1352.04 1521.3 1412.98C1524.58 1445.69 1519.14 1489.33 1500.05 1517.11C1494.38 1525.36 1466.6 1532.97 1457.55 1538.97C1406.49 1571.63 1356.88 1611.45 1293.55 1614.48C1248.54 1616.64 1211.38 1600.43 1178.05 1570.62C1063.06 1620.6 924.488 1617.38 815.665 1553C806.238 1560.85 796.79 1567.84 786.973 1575.18L782.265 1578.41C703.152 1632.5 579.514 1688.2 516.552 1585.82C487.951 1539.31 459.732 1449.82 503.399 1403.5C517.478 1388.57 585.414 1374.89 606.889 1364.68C626.655 1356.4 637.603 1350.33 655.819 1338.43C642.501 1287.31 640.998 1212.18 654.072 1160.84C621.579 1132.12 590.106 1102.26 559.711 1071.32C509.26 1020.38 459.83 967.637 425.754 904.023C408.643 872.08 418.279 847.014 439.428 820.467C458.054 797.088 479.083 782.313 505.547 769.31C460.85 716.794 441.321 650.581 438.788 582.739C437.418 546.031 438.254 522.054 428.364 485.965C379.957 490.783 362.621 454.29 387.629 415.066C412.428 376.172 496.161 324.892 522.585 390.144C526.201 399.073 524.937 408.028 527.493 416.731C528.814 421.227 537.382 433.322 539.937 437.447C543.603 443.449 546.767 449.743 549.398 456.265C578.552 526.706 546.411 568.308 619.302 617.738C633.918 565.454 666.697 512.076 703.025 471.887C772.413 395.042 869.441 348.85 972.836 343.437Z"/><path fill="#A8EFE0" d="M762.342 441.849C764.174 440.34 766.046 438.881 767.956 437.473C822.248 396.656 886.446 371.062 953.928 363.331C969.983 361.522 996.6 360.576 1013.14 362.957C1022.86 363.243 1045.96 366.712 1055.03 369.63C1129.37 380.506 1210.76 435.459 1263.06 487.477C1255.38 491.813 1245.45 497.643 1241.17 505.697L1241.21 506.651C1247.4 503.353 1250.28 501.794 1256.92 499.437C1346.74 469.364 1441.55 527.452 1497.09 595.611C1501.42 599.446 1507.35 607.957 1510.84 612.737C1512.4 614.343 1513.86 616.769 1515.09 618.687C1522.09 626.717 1531.56 642.297 1537.05 651.635C1569.07 706.03 1588.48 770.785 1584.66 834.245C1581.4 888.499 1551.32 931.584 1511.31 966.291C1502.12 974.327 1492.42 981.752 1482.26 988.517C1511.95 949.905 1545.63 912.848 1525.55 861.864C1507.88 821.703 1442.26 737.293 1390.17 765.335C1344.2 790.078 1301.94 832.153 1261.62 865.645C1249.79 875.488 1229.69 892.66 1219.47 902.673C1192.95 881.131 1181.98 857.235 1178.48 823.054C1178 818.362 1177.61 813.663 1177.3 808.957C1172.74 832.352 1170.41 850.346 1178.28 873.755C1183.98 891.815 1193.15 901.012 1206.76 913.089L1186.86 930.952C1160.12 955.033 1129.84 981.494 1107.98 1010.22C1115.55 1005.6 1132.08 993.125 1137.24 990.425C1144.08 983.953 1159.94 971.945 1167.9 965.498C1187.45 949.631 1206.83 933.565 1226.05 917.304C1271.2 878.784 1326.42 826.456 1373.74 792.891C1376.54 790.931 1385.26 783.044 1387.27 787.047L1387.84 788.082C1389.61 810.432 1407.65 820.694 1427.44 824.814C1430.47 847.605 1440.59 856.878 1462.6 862.39C1465.67 885.017 1483 898.385 1505.01 900.496C1509.17 900.151 1513.34 899.833 1517.51 899.541C1484.4 981.709 1393.49 1059 1324.6 1111.23C1316.67 1117.25 1282.93 1143.89 1275.91 1147.57C1268.87 1153.36 1255.71 1163.83 1248.09 1168.71L1244.91 1171.78L1245.2 1172.65C1249.59 1171.23 1251.19 1170.39 1255.36 1168.27C1283.8 1154.84 1316.07 1137.42 1341.91 1119.37C1367.14 1186.89 1374.34 1244.91 1366.7 1317.16C1365.7 1325.37 1364.74 1335.51 1363.09 1343.46C1362.43 1352.17 1360.62 1363.27 1358.94 1371.99L1362.31 1375.28C1366.15 1368.29 1370.24 1357.68 1373.33 1350.12C1378.3 1331.63 1382.05 1316.99 1384.04 1297.82C1389.97 1298.37 1395.64 1298.95 1401.5 1299.9L1405.26 1300.49C1424.92 1305.08 1438.57 1311.92 1455.01 1323.6C1484.23 1347.74 1499.01 1380.9 1502.77 1418.37C1505.65 1448.52 1499.74 1478.87 1485.76 1505.74L1473.38 1513.04C1477.49 1505.03 1478.9 1502.25 1479.6 1492.96C1478.27 1489.9 1478.14 1491.24 1476.06 1488.89C1469.84 1502.31 1463.69 1515.99 1450.47 1522.65C1461.45 1500.53 1466.9 1488 1467.98 1463.29C1467.41 1460.42 1466.92 1458.37 1466.12 1455.56C1458.7 1490.41 1438.34 1530.2 1407.41 1549.36C1360.95 1578.14 1313.88 1605.12 1257.11 1592.13C1217.29 1583.01 1185.21 1556.95 1163.54 1523.22C1154.67 1508.96 1149.94 1498.84 1145.03 1483.01L1142.93 1474.96L1139.73 1475.85C1139.41 1484.86 1139.26 1491.16 1140.26 1500.15C1144.72 1521.85 1152.47 1536.78 1165.03 1554.51C1148.07 1561.16 1126.4 1568.56 1108.62 1572.71C1042.8 1590.8 973.233 1590.14 907.763 1570.83C830.233 1548.59 751.852 1496.53 712.264 1425.25C690.247 1394.67 671.735 1338.23 666.849 1301.17C652.016 1220.18 674.269 1134.91 705.718 1060.72C711.072 1048.67 716.498 1037.72 722.416 1025.93C783.485 1064.91 840.189 1079.78 912.441 1079.03C953.714 1075.76 978.543 1070.64 1016.5 1052.37L1015.07 1050.41C987.882 1057.21 949.249 1064.89 921.294 1064.03C913.144 1061.27 895.57 1059.12 885.472 1056.61C854.734 1048.98 823.049 1037.43 796.323 1020.37C786.589 1014.16 761.857 995.19 759.59 984.086C769.186 990.673 779.974 995.327 791.35 997.786C864.883 1013.07 918.832 913.813 930.788 855.26C939.333 857.928 947 858.654 955.845 859.043C980.39 856.771 998.365 848.055 1015.14 829.364C1028.25 814.747 1035.48 795.847 1034.55 776.004C1034.28 770.193 1031.6 763.703 1026.91 760.114C1006.29 744.339 995.804 768.315 982.693 777.844C972.66 785.136 954.598 789.163 942.54 790.765C937.627 790.981 933.099 791.098 928.188 790.824C913.268 789.992 895.399 782.253 886.374 798.782C883.884 811.46 885.967 816.188 890.587 827.842C878.67 833.178 868.041 838.53 855.67 843.334C780.379 873.319 696.234 872.006 621.914 839.689C524.762 796.299 462.349 701.837 455.666 597.127C452.761 551.618 455.058 509.184 438.522 466.176C425.454 473.784 410.351 472.127 398.085 463.619C381.789 452.318 399.893 425.053 409.108 414.345C423.479 397.646 452.497 376.986 474.986 375.131C508.452 372.308 508.601 400.159 510.774 423.753C554.675 477.641 542.225 507.277 557.634 566.961L552.494 577.231L551.975 578.231C545.998 589.485 537.747 592.907 535.155 598.369C539.936 600.651 551.213 595.182 555.608 592.555C559.299 588.943 560.445 587.206 563.519 583.128C572.98 600.673 579.827 606.286 593.893 619.219C592.683 623.589 591.437 628.121 589.762 632.321C582.929 646.05 576.872 652.418 565.562 662.852C580.605 657.012 590.612 652.678 600.277 638.921C602.395 634.683 603.149 632.79 604.774 628.435C612.887 634.022 617.561 636.892 626.359 641.457C628.534 646.483 629.261 648.426 630.555 653.699C633.066 667.25 631.359 676.477 627.746 689.638C638.087 679.56 643.039 673.253 643.598 658.209C643.208 656.26 641.534 650.606 642.131 649.111C643.238 648.394 662.115 655.727 666 656.171C673.074 656.98 682.018 666.783 685.839 672.762C694.637 684.611 696.591 698.318 698.328 712.543C703.525 699.342 706.357 687.579 701.041 673.52C698.68 668.068 696.709 664.789 693.944 659.637C714.923 659.073 727.318 656.775 747.437 667.254C758.693 672.466 768.654 682.754 777.052 691.605C772.924 675.25 768.165 667.899 756.247 656.493C747.797 651.335 748.481 651.744 739.449 648.327C774.472 639.621 804.588 631.342 837.227 653.393C842.136 655.828 845.539 659.003 849.771 662.481C835.451 631.986 815.498 628.298 784.92 625.923C789.711 610.729 792.059 599.8 793.165 584.13C797.777 518.784 744.009 502.846 700.673 545.742C675.808 570.354 663.234 604.082 663.085 639.213C656.717 637.108 639.047 631.324 634.767 625.889C634.007 624.924 634.933 623.429 635.462 621.783C636.206 619.132 636.319 618.477 637.475 616.039C651.212 570.458 682.767 522.599 713.891 486.904C728.499 470.15 733.755 462.027 756.22 456.388C773.522 450.673 797.994 466.236 804.838 459.342C805.799 448.942 790.224 446.038 782.687 444.054C777.722 443.176 775.212 443.179 770.131 443.124C768.486 443.456 760.49 445.162 759.428 444.196C759.294 442.921 761.463 442.262 762.342 441.849Z"/><path fill="#EEFAF9" d="M666.849 1301.17C672.385 1242.68 700.899 1188.77 746.135 1151.28C795.889 1110.33 856.775 1103.98 918.431 1109.2C987.032 1115.01 1058.2 1150.55 1100.69 1205.08C1140.16 1255.73 1173.41 1347.43 1165.1 1411.97C1162.88 1429.22 1155.23 1469.05 1145.03 1483.01L1142.93 1474.96L1139.73 1475.85C1139.41 1484.86 1139.26 1491.16 1140.26 1500.15C1144.72 1521.85 1152.47 1536.78 1165.03 1554.51C1148.07 1561.16 1126.4 1568.56 1108.62 1572.71C1042.8 1590.8 973.233 1590.14 907.763 1570.83C830.233 1548.59 751.852 1496.53 712.264 1425.25C690.247 1394.67 671.735 1338.23 666.849 1301.17Z"/><path fill="#A8EFE0" d="M712.264 1425.25C719.454 1430.4 726.584 1441.82 733.104 1448.28C807.012 1521.46 906.504 1561.31 1010.8 1546.58C1056.95 1540.06 1099.71 1527.86 1138.75 1501.97L1140.26 1500.15C1144.72 1521.85 1152.47 1536.78 1165.03 1554.51C1148.07 1561.16 1126.4 1568.56 1108.62 1572.71C1042.8 1590.8 973.233 1590.14 907.763 1570.83C830.233 1548.59 751.852 1496.53 712.264 1425.25Z"/><path fill="#7CEDBB" d="M1140.26 1500.15C1144.72 1521.85 1152.47 1536.78 1165.03 1554.51C1148.07 1561.16 1126.4 1568.56 1108.62 1572.71C1109.22 1571.22 1109.68 1569.65 1110.4 1568.22L1115.37 1558.37C1116.1 1556.87 1116.85 1555.38 1117.61 1553.89L1119.64 1549.4C1120.56 1547.37 1121.53 1545.36 1122.47 1543.33L1124.53 1538.88C1129.52 1527.86 1135.41 1513.52 1138.75 1501.97L1140.26 1500.15Z"/><path fill="#163B47" d="M1141.38 1468.94C1142.43 1471.8 1142.58 1471.98 1142.93 1474.96L1139.73 1475.85L1140.3 1469.98C1140.78 1469.61 1141.11 1469.45 1141.38 1468.94Z"/><path fill="#63838B" d="M1140.3 1469.98C1140.31 1469.22 1140.2 1468.31 1140.51 1467.63C1140.98 1467.9 1141.11 1468.43 1141.38 1468.94C1141.11 1469.45 1140.78 1469.61 1140.3 1469.98Z"/><path fill="#FFB3C6" d="M1042.32 724.927C1046.83 726.673 1063.22 726.874 1069.89 727.95L1075.28 729.491C1102.3 737.561 1124.03 750.345 1137.9 776.033C1147.56 793.994 1149.62 815.071 1143.63 834.561C1133.99 866.362 1105 889.17 1073.42 896.703C1027.4 907.678 987.742 892.174 955.845 859.043C980.39 856.771 998.365 848.055 1015.14 829.364C1028.25 814.747 1035.48 795.847 1034.55 776.004C1034.28 770.193 1031.6 763.703 1026.91 760.114C1006.29 744.339 995.804 768.315 982.693 777.844C972.66 785.136 954.598 789.163 942.54 790.765C946.919 779.01 949.708 774.344 956.908 763.983C962.455 756.913 972.224 749.215 979.641 744.207C991.212 738.528 998.278 733.575 1011.45 729.96C1018.27 728.088 1038.24 726.857 1042.32 724.927Z"/><path fill="white" d="M1101.59 761.327C1107.1 759.591 1113.13 761.029 1117.26 765.068C1121.39 769.108 1122.97 775.095 1121.36 780.647C1119.75 786.198 1115.22 790.415 1109.56 791.618C1101.38 793.36 1093.27 788.366 1091.14 780.274C1089.01 772.181 1093.61 763.841 1101.59 761.327Z"/><path fill="#7CEDBB" d="M438.522 466.176C453.476 474.979 458.899 490.304 463.622 506.274C470.845 530.699 468.806 554.453 470.833 579.094C477.84 664.31 534.51 750.382 607.024 793.356C675.177 833.744 747.789 840.062 822.848 821.776C837.431 818.208 874.328 806.334 886.374 798.782C883.884 811.46 885.967 816.188 890.587 827.842C878.67 833.178 868.041 838.53 855.67 843.334C780.379 873.319 696.234 872.006 621.914 839.689C524.762 796.299 462.349 701.837 455.666 597.127C452.761 551.618 455.058 509.184 438.522 466.176Z"/><path fill="#063648" d="M979.641 744.207C961.94 732.055 955.195 721.177 950.557 700.226C943.332 667.591 952.501 629.168 978.494 607.031C1014.2 576.62 1054.2 605.272 1059.97 645.53C1064.45 676.814 1060.42 698.628 1042.32 724.927C1038.24 726.857 1018.27 728.088 1011.45 729.96C998.278 733.575 991.212 738.528 979.641 744.207Z"/><path fill="white" d="M982.961 620.524C992.089 617.778 1001.71 622.964 1004.44 632.098C1007.16 641.232 1001.95 650.843 992.812 653.547C983.702 656.241 974.13 651.053 971.414 641.95C968.698 632.846 973.863 623.261 982.961 620.524Z"/><path fill="#EEFAF9" d="M1037.51 684.544C1040.51 683.159 1044.07 684.401 1045.56 687.354C1047.05 690.306 1045.94 693.909 1043.04 695.503C1041.07 696.586 1038.67 696.508 1036.78 695.3C1034.88 694.092 1033.8 691.946 1033.95 689.705C1034.1 687.463 1035.47 685.484 1037.51 684.544Z"/><path fill="white" d="M986.12 664.619C987.897 663.788 989.985 663.982 991.579 665.127C993.172 666.273 994.023 668.189 993.802 670.139C993.582 672.089 992.325 673.768 990.516 674.528C987.794 675.672 984.657 674.428 983.46 671.729C982.263 669.03 983.445 665.869 986.12 664.619Z"/><path fill="#7CEDBB" d="M1478.52 581.597L1492.98 595.403L1497.09 595.611C1501.42 599.446 1507.35 607.957 1510.84 612.737C1512.4 614.343 1513.86 616.769 1515.09 618.687C1522.09 626.717 1531.56 642.297 1537.05 651.635C1569.07 706.03 1588.48 770.785 1584.66 834.245C1581.4 888.499 1551.32 931.584 1511.31 966.291C1502.12 974.327 1492.42 981.752 1482.26 988.517C1511.95 949.905 1545.63 912.848 1525.55 861.864C1536.47 851.861 1548.22 822.109 1550.37 807.144C1561.53 729.733 1517.93 643.572 1475.01 582.599L1478.52 581.597Z"/><path fill="#A8EFE0" d="M1497.09 595.611C1501.42 599.446 1507.35 607.957 1510.84 612.737C1508.32 612.494 1508.15 612.164 1506.28 610.402L1505.12 609.404C1501.72 604.301 1496.9 600.12 1492.98 595.403L1497.09 595.611Z"/><path fill="#4ECFB3" d="M1505.12 609.404L1506.28 610.402C1508.15 612.164 1508.32 612.494 1510.84 612.737C1512.4 614.343 1513.86 616.769 1515.09 618.687C1508.1 615.851 1509.68 615.461 1505.12 609.404Z"/><path fill="white" d="M920.281 693.805C918.864 656.527 927.633 624.923 952.904 596.487C980.65 565.265 1022 560.781 1052.64 590.815C1073.59 611.349 1080.96 642.694 1080.63 671.495C1080.44 690.803 1076.8 709.921 1069.89 727.95C1063.22 726.874 1046.83 726.673 1042.32 724.927C1060.42 698.628 1064.45 676.814 1059.97 645.53C1054.2 605.272 1014.2 576.62 978.494 607.031C952.501 629.168 943.332 667.591 950.557 700.226C955.195 721.177 961.94 732.055 979.641 744.207C972.224 749.215 962.455 756.913 956.908 763.983C939.257 752.084 928.106 731.88 922.476 711.787C921.353 707.779 922.557 704.646 921.167 701.013C921.022 697.918 921.13 696.688 920.281 693.805Z"/><path fill="#7CEDBB" d="M1255.36 1168.27C1283.8 1154.84 1316.07 1137.42 1341.91 1119.37C1367.14 1186.89 1374.34 1244.91 1366.7 1317.16C1365.7 1325.37 1364.74 1335.51 1363.09 1343.46L1363.04 1337.09C1360.73 1325.92 1360.84 1313.16 1357.94 1300.38C1343.61 1237.25 1308.59 1201.81 1255.36 1168.27Z"/><path fill="#7CEDBB" d="M1163.54 1523.22C1171.88 1528.18 1179.93 1535.22 1189.09 1540.66C1221.89 1560.17 1255.28 1568.64 1293.41 1563.24C1349.13 1555.35 1400.03 1531.18 1438.63 1489.76C1449.8 1477.78 1456.05 1467.16 1465.72 1454.58L1466.12 1455.56C1458.7 1490.41 1438.34 1530.2 1407.41 1549.36C1360.95 1578.14 1313.88 1605.12 1257.11 1592.13C1217.29 1583.01 1185.21 1556.95 1163.54 1523.22Z"/><path fill="#7CEDBB" d="M1505.01 900.496C1509.17 900.151 1513.34 899.833 1517.51 899.541C1484.4 981.709 1393.49 1059 1324.6 1111.23C1316.67 1117.25 1282.93 1143.89 1275.91 1147.57C1268.87 1153.36 1255.71 1163.83 1248.09 1168.71C1251.05 1163.76 1263.38 1151.56 1267.92 1147.79C1271.98 1142.87 1277.11 1138.1 1281.64 1133.54C1345.81 1068.92 1413.42 1007.27 1474.04 939.271C1484.42 927.623 1496.47 913.378 1505.01 900.496Z"/><path fill="#7CEDBB" d="M1455.01 1323.6C1484.23 1347.74 1499.01 1380.9 1502.77 1418.37C1505.65 1448.52 1499.74 1478.87 1485.76 1505.74L1473.38 1513.04C1477.49 1505.03 1478.9 1502.25 1479.6 1492.96C1478.27 1489.9 1478.14 1491.24 1476.06 1488.89C1469.84 1502.31 1463.69 1515.99 1450.47 1522.65C1461.45 1500.53 1466.9 1488 1467.98 1463.29C1467.41 1460.42 1466.92 1458.37 1466.12 1455.56L1465.72 1454.58L1466.39 1451.09C1473.39 1418.3 1462.94 1356.56 1455.01 1323.6Z"/><path fill="#163B47" d="M1476.06 1488.89C1476.75 1487.42 1478.24 1483.44 1479.46 1482.66C1480.77 1483.09 1479.77 1491.62 1479.6 1492.96C1478.27 1489.9 1478.14 1491.24 1476.06 1488.89Z"/><path fill="#2D776D" d="M1466.39 1451.09C1468.79 1455.18 1468.07 1458.28 1467.98 1463.29C1467.41 1460.42 1466.92 1458.37 1466.12 1455.56L1465.72 1454.58L1466.39 1451.09Z"/><path fill="#063648" d="M917.906 689.465C916.448 672.708 915.857 659.93 918.659 643.208C925.617 601.669 956.946 559.637 1001.66 555.885C1022.24 553.975 1042.69 560.635 1058.2 574.292C1100.57 610.949 1100.82 683.097 1075.28 729.491L1069.89 727.95C1076.8 709.921 1080.44 690.803 1080.63 671.495C1080.96 642.694 1073.59 611.349 1052.64 590.815C1022 560.781 980.65 565.265 952.904 596.487C927.633 624.923 918.864 656.527 920.281 693.805C919.478 692.365 918.686 690.918 917.906 689.465Z"/><path fill="#7CEDBB" d="M722.416 1025.93C783.485 1064.91 840.189 1079.78 912.441 1079.03C901.098 1082.77 883.993 1084.92 872.007 1086.36C829.957 1091.41 786.038 1084.86 745.521 1073.22C732.153 1069.39 719.135 1064.54 705.718 1060.72C711.072 1048.67 716.498 1037.72 722.416 1025.93Z"/><path fill="#7CEDBB" d="M1055.03 369.63C1129.37 380.506 1210.76 435.459 1263.06 487.477C1255.38 491.813 1245.45 497.643 1241.17 505.697C1239.12 498.471 1227.59 487.883 1222.11 482.326C1187.05 446.471 1147.28 416.868 1103.66 392.326C1091.06 385.234 1064.56 376.399 1055.03 369.63Z"/><path fill="white" d="M762.342 441.849C764.174 440.34 766.046 438.881 767.956 437.473C822.248 396.656 886.446 371.062 953.928 363.331C969.983 361.522 996.6 360.576 1013.14 362.957C1005.67 365.238 996.432 365.393 988.558 366.316C977.083 367.772 965.69 369.81 954.422 372.423C904.764 384.078 866.688 396.525 821.663 421.49C808.574 428.747 795.535 436.989 782.687 444.054C777.722 443.176 775.212 443.179 770.131 443.124C768.486 443.456 760.49 445.162 759.428 444.196C759.294 442.921 761.463 442.262 762.342 441.849Z"/><path fill="#EEFAF9" d="M762.342 441.849C764.907 442.968 764.54 442.633 767.481 442.873C768.365 442.951 769.248 443.035 770.131 443.124C768.486 443.456 760.49 445.162 759.428 444.196C759.294 442.921 761.463 442.262 762.342 441.849Z"/><path fill="white" d="M1373.74 792.891L1375.27 792.772C1378.28 792.345 1378.36 792.255 1380.73 794.252C1354.56 820.764 1158.15 989.642 1137.24 990.425C1144.08 983.953 1159.94 971.945 1167.9 965.498C1187.45 949.631 1206.83 933.565 1226.05 917.304C1271.2 878.784 1326.42 826.456 1373.74 792.891Z"/><path fill="white" d="M1256.92 499.437C1346.74 469.364 1441.55 527.452 1497.09 595.611L1492.98 595.403L1478.52 581.597L1475.01 582.599C1472.79 580.063 1471.48 578.519 1471.47 575.267C1468.89 571.53 1456.03 561.983 1451.9 558.763C1409.74 526.071 1359.37 505.659 1306.35 499.779C1289.84 498.048 1271.46 501.402 1256.92 499.437Z"/><path fill="#4ECFB3" d="M1471.47 575.267C1474.07 577.453 1476.05 579.331 1478.52 581.597L1475.01 582.599C1472.79 580.063 1471.48 578.519 1471.47 575.267Z"/><path fill="white" d="M474.986 375.131C508.452 372.308 508.601 400.159 510.774 423.753C554.675 477.641 542.225 507.277 557.634 566.961L552.494 577.231C539.715 564.59 529.466 462.34 515.739 440.676C509.792 431.29 511.66 432.9 502.913 424.381L503.208 420.637C504.369 404.575 500.789 393.052 490.135 380.728C485.025 378.754 481.121 378.171 475.79 377.117L474.986 375.131Z"/><path fill="#EEFAF9" d="M637.475 616.039C651.212 570.458 682.767 522.599 713.891 486.904C728.499 470.15 733.755 462.027 756.22 456.388L757.385 457.544C753.497 461.739 750.016 463.457 746.182 467.11C738.7 474.239 730.866 482.022 723.698 489.417C693.188 520.889 656.464 572.589 641.083 613.854C640.736 614.794 640.44 615.364 639.997 616.258C638.824 616.277 638.58 616.368 637.475 616.039Z"/><path fill="white" d="M739.449 648.327C774.472 639.621 804.588 631.342 837.227 653.393L835.629 653.464C833.468 653.61 832.08 653.179 830.002 652.729C813.04 649.056 795.096 647.384 777.999 651.214C773.521 652.218 769.005 652.969 764.511 654.132C761.688 654.863 759.05 655.751 756.247 656.493C747.797 651.335 748.481 651.744 739.449 648.327Z"/><path fill="white" d="M563.519 583.128C572.98 600.673 579.827 606.286 593.893 619.219C592.683 623.589 591.437 628.121 589.762 632.321C573.631 621.944 566.656 607.309 555.608 592.555C559.299 588.943 560.445 587.206 563.519 583.128Z"/><path fill="#7CEDBB" d="M1178.28 873.755C1183.98 891.815 1193.15 901.012 1206.76 913.089L1186.86 930.952C1183.8 918.897 1177.81 885.415 1178.28 873.755Z"/><path fill="#7CEDBB" d="M1384.04 1297.82C1389.97 1298.37 1395.64 1298.95 1401.5 1299.9L1405.26 1300.49C1396.13 1313.37 1383.51 1340.15 1373.33 1350.12C1378.3 1331.63 1382.05 1316.99 1384.04 1297.82Z"/><path fill="white" d="M643.598 658.209C643.208 656.26 641.534 650.606 642.131 649.111C643.238 648.394 662.115 655.727 666 656.171C673.074 656.98 682.018 666.783 685.839 672.762C679.931 674.945 646.104 666.548 644.023 659.529L643.598 658.209Z"/><path fill="white" d="M693.944 659.637C714.923 659.073 727.318 656.775 747.437 667.254C741.962 669.96 738.741 669.591 732.727 669.641C722.311 669.727 711.35 672.001 701.041 673.52C698.68 668.068 696.709 664.789 693.944 659.637Z"/><path fill="white" d="M600.277 638.921C602.395 634.683 603.149 632.79 604.774 628.435C612.887 634.022 617.561 636.892 626.359 641.457C628.534 646.483 629.261 648.426 630.555 653.699C627.842 655.439 602.573 642.059 600.277 638.921Z"/><path fill="#EEFAF9" d="M1373.74 792.891C1376.54 790.931 1385.26 783.044 1387.27 787.047L1387.84 788.082C1385.52 790.259 1383.11 792.149 1380.73 794.252C1378.36 792.255 1378.28 792.345 1375.27 792.772L1373.74 792.891Z"/><path fill="#163B47" d="M1358.94 1371.99L1362.31 1375.28C1360.14 1379.26 1358.11 1382.98 1355.79 1386.9L1358.94 1371.99Z"/><path fill="#10B6A9" d="M917.906 689.465C918.686 690.918 919.478 692.365 920.281 693.805C921.13 696.688 921.022 697.918 921.167 701.013C918.311 696.422 918.749 695.344 917.906 689.465Z"/><path fill="#C4F6E5" d="M637.475 616.039C638.58 616.368 638.824 616.277 639.997 616.258C639.472 620.204 638.966 619.503 635.462 621.783C636.206 619.132 636.319 618.477 637.475 616.039Z"/><path fill="#163B47" d="M1015.07 1050.41C1016.03 1050.1 1020.21 1048.47 1021.25 1049.47C1021.15 1050.53 1017.07 1052.1 1016.5 1052.37L1015.07 1050.41Z"/><path fill="#7CEDBB" d="M1238.47 575.388C1244.84 565.433 1261.67 558.388 1278.17 554.978C1370.32 535.935 1459.38 614.093 1490.55 695.488C1490.51 696.151 1490.48 696.813 1490.44 697.476L1488.49 695.187C1481.83 692.047 1469.44 679.363 1462.09 674.106C1415.22 640.605 1358.71 614.869 1299.89 619.051C1278.8 620.55 1253.84 637.144 1238.96 612.287C1231.24 599.397 1235.01 588.217 1238.47 575.388Z"/><path fill="#063648" d="M1238.47 575.388C1244.84 565.433 1261.67 558.388 1278.17 554.978C1370.32 535.935 1459.38 614.093 1490.55 695.488C1490.51 696.151 1490.48 696.813 1490.44 697.476L1488.49 695.187C1467.47 655.164 1413.14 603.412 1373.01 584.825C1323.72 562.001 1288.83 558.372 1238.47 575.388Z"/><path fill="#063648" d="M472.004 392.219C490.042 393.423 478.518 411.734 470.707 418.41C457.467 429.725 444.492 436.86 427.741 441.187C403.088 438.432 427.063 415.871 436.196 409.564C447.647 401.656 458.111 394.787 472.004 392.219Z"/><path fill="#063648" d="M1021.74 465.418C1050.1 462.722 1078.25 485.128 1091.78 508.105C1093.61 511.217 1093.62 513.022 1092.54 516.184C1089.16 518.025 1090.93 517.611 1087.03 517.399C1082.55 514.46 1077.02 507.019 1073.03 502.503C1056.94 486.103 1034.91 474.197 1011.5 479.635C1005.72 480.975 1000.68 483.746 995.059 484.476C992.816 483.531 991.172 482.962 990.426 480.352C987.073 468.635 1016.1 465.966 1021.74 465.418Z"/><path fill="#A8EFE0" d="M545.378 810.105C552.089 815.054 558.815 820.29 565.464 825.348C532.74 840.69 537.292 873.078 558.359 896.107C572.821 911.916 594.967 922.276 616.232 923.724C621.131 924.058 621.746 922.881 624.431 927.15C652.199 966.531 669.462 987.962 709.711 1017.43C685.212 1061.58 672.697 1093.76 658.502 1141.78C641.361 1126.95 624.673 1111.6 608.46 1095.76C601.093 1088.68 590.386 1078.89 583.843 1071.43C579.457 1068.21 562.349 1049.9 557.127 1044.67C508.161 995.581 470.803 951.621 436.503 891.52C459.58 888.719 471.906 882.148 474.827 857.878C495.942 853.495 506.693 847.395 510.947 825.332C526.744 825.262 534.969 821.587 545.378 810.105Z"/><path fill="#7CEDBB" d="M624.431 927.15C652.199 966.531 669.462 987.962 709.711 1017.43C685.212 1061.58 672.697 1093.76 658.502 1141.78C641.361 1126.95 624.673 1111.6 608.46 1095.76C601.093 1088.68 590.386 1078.89 583.843 1071.43C637.909 1088.78 634.659 1025.44 630.779 992.375C628.219 970.556 628.256 949.156 624.431 927.15Z"/><path fill="#A8EFE0" d="M582.775 1389.13C611.148 1381.6 635.279 1371.22 659.606 1355.42C660.389 1354.91 662.505 1360.71 662.482 1360.66C676.366 1403.21 692.5 1430.02 717.748 1465.94C741.079 1494.37 766.654 1522.24 798.58 1541.31C747.751 1581.37 680.735 1621.2 614.711 1624.51C620.573 1616.3 622.873 1610.72 625.735 1600.98C626.04 1599.94 627.498 1593.45 627.543 1593.35C636.007 1530.15 599.924 1445.2 546.484 1409.63C543.473 1408.03 540.482 1406.38 537.512 1404.7C553.579 1399.37 562.285 1393.23 578.733 1400.47L580.408 1401.17C582.655 1401.75 583.792 1402.53 585.867 1403.59C590.908 1405.72 597.099 1412.65 600.94 1416.68C597.871 1407.45 595.605 1401.97 588.932 1394.7C586.791 1392.93 584.706 1391.13 582.775 1389.13Z"/><path fill="#7CEDBB" d="M717.748 1465.94C741.079 1494.37 766.654 1522.24 798.58 1541.31C747.751 1581.37 680.735 1621.2 614.711 1624.51C620.573 1616.3 622.873 1610.72 625.735 1600.98C626.04 1599.94 627.498 1593.45 627.543 1593.35C652.969 1585.97 705.054 1555.01 721.044 1533.22C734.574 1514.78 721.896 1485.35 717.748 1465.94Z"/><path fill="white" d="M582.775 1389.13C611.148 1381.6 635.279 1371.22 659.606 1355.42C660.389 1354.91 662.505 1360.71 662.482 1360.66C637.959 1380.42 616.067 1384.04 588.932 1394.7C586.791 1392.93 584.706 1391.13 582.775 1389.13Z"/><path fill="white" d="M537.512 1404.7C553.579 1399.37 562.285 1393.23 578.733 1400.47L580.408 1401.17C573.867 1404.42 572.723 1401.86 567.998 1403.75C561.189 1405.96 553.49 1407.61 546.484 1409.63C543.473 1408.03 540.482 1406.38 537.512 1404.7Z"/><path fill="#EEFAF9" d="M580.408 1401.17C582.655 1401.75 583.792 1402.53 585.867 1403.59C582.999 1405.05 571.336 1404.12 567.998 1403.75C572.723 1401.86 573.867 1404.42 580.408 1401.17Z"/><path fill="#7CEDBB" d="M499.309 1488.94C497.657 1470.63 495.443 1401.82 530.289 1417.81C578.934 1440.13 612.286 1515.96 613.827 1566.28C613.906 1568.89 613.915 1571.51 613.852 1574.12C615.064 1592.65 609.97 1612.4 594.486 1623.88C533.73 1607.6 506.299 1546.86 499.309 1488.94Z"/><path fill="white" d="M499.309 1488.94C497.657 1470.63 495.443 1401.82 530.289 1417.81C578.934 1440.13 612.286 1515.96 613.827 1566.28C613.906 1568.89 613.915 1571.51 613.852 1574.12C612.439 1571.99 609.168 1549.5 607.293 1543.15C595.089 1502.11 571.489 1452.16 533.017 1430.02C498.972 1410.41 504.559 1480.03 499.309 1488.94Z"/><path fill="#063648" d="M553.878 1516.08C560.913 1515.77 570.237 1516.43 572.946 1524.02C575.043 1529.9 562.532 1521.05 556.996 1521.95C546.731 1523.63 545.761 1523.5 538.563 1530.7C536.482 1534.04 532.912 1544.44 530.804 1544.51C530.344 1544.24 529.729 1543.77 529.717 1543.18C529.378 1526.71 540.506 1519.4 553.878 1516.08Z"/><path fill="#063648" d="M537.135 1474.24C545.837 1473.56 554.68 1472.81 559.783 1482.02C560.206 1482.78 560.338 1483.15 560.069 1483.97C556.5 1485.62 546.016 1473.04 529.113 1484.16C524.689 1489.94 520.527 1500.86 519.522 1501.59L518.614 1501.39C516.778 1499.05 518.212 1494.56 518.894 1491.98C521.388 1482.57 528.165 1477.12 537.135 1474.24Z"/><path fill="#063648" d="M571.73 1555.06C573.562 1554.96 576.039 1554.77 578.001 1554.91C580.941 1555.13 586.418 1556.87 588.482 1559.14C588.587 1559.26 588.644 1559.59 588.579 1559.63C585.46 1561.31 581.243 1558.02 576.012 1559.23C567.105 1561.3 563.629 1563.96 558.4 1570.9C556.913 1573.72 554.283 1583.5 551.723 1582.85C549.482 1580 552.268 1571.83 553.568 1569.23C557.788 1560.77 563.046 1557.86 571.73 1555.06Z"/><path fill="#7CEDBB" d="M605.857 849.408C636.654 864.66 661.374 870.467 694.449 876.473C706.769 915.854 724.79 959.535 759.59 984.086C761.857 995.19 786.589 1014.16 796.323 1020.37C823.049 1037.43 854.734 1048.98 885.472 1056.61C895.57 1059.12 913.144 1061.27 921.294 1064.03C775.898 1068.04 653.845 987.961 605.857 849.408Z"/><path fill="#7CEDBB" d="M1430.35 814.089C1419.69 811.286 1404.74 805.704 1400.03 795.74C1388.17 770.635 1419.31 772.353 1433.04 779.778C1469.07 799.264 1498.69 835.246 1514.37 872.628C1516.36 877.712 1517.01 881.777 1515.01 886.671C1506.81 895.326 1487.89 884.678 1481.39 877.965C1462.94 858.932 1478.12 846.586 1489.78 831.536C1480.61 837.98 1467.84 853.614 1458.27 850.389C1437.37 843.343 1431.75 822.224 1446.07 806.14L1444.59 803.287C1439.37 806.94 1435.3 810.098 1430.35 814.089Z"/><path fill="#0A4A3A" d="M1444.59 803.287C1444.59 803.287 1453.23 797.105 1452.29 799.983C1452.02 800.787 1447.14 805.156 1446.07 806.14L1444.59 803.287Z"/><path fill="white" d="M905.343 822.98C901.651 818.221 897.898 810.888 899.755 804.78C901.245 803.411 902.222 802.109 904.409 802.462C933.776 807.235 965.108 805.738 990.506 788.643C998.099 783.531 1007.11 770.78 1014.93 769.11C1021.58 770.964 1021.1 777.797 1020.94 783.699C1018.62 802.036 1009.06 818.68 994.382 829.914C968.934 849.696 925.558 849.922 905.343 822.98Z"/><path fill="#EEFAF9" d="M905.343 822.98C930.515 836.242 960.827 834.182 985.529 820.747C1001.83 811.881 1011.62 799.341 1020.94 783.699C1018.62 802.036 1009.06 818.68 994.382 829.914C968.934 849.696 925.558 849.922 905.343 822.98Z"/><path fill="white" d="M888.115 844.042C891.78 842.981 896.513 840.428 900.042 838.622C909.139 845.15 911.431 846.517 921.23 851.778C919.305 856.221 917.526 861.007 914.82 864.993C906.607 876.331 899.419 880.411 886.958 886.748C885.934 887.215 884.95 887.577 883.902 887.983C857.485 897.333 854.5 896.738 826.901 899.132C824.08 899.272 823.546 899.513 821.089 898.543C818.216 891.793 816.687 886.63 814.407 879.749C813.786 876.545 813.023 873.76 812.304 870.614C812.992 870.644 813.68 870.673 814.368 870.703C815.945 870.109 817.362 869.524 819.012 869.166C842.005 864.183 866.087 856.102 886.824 844.985C887.769 844.237 887.33 844.539 888.115 844.042Z"/><path fill="white" d="M888.115 844.042C891.78 842.981 896.513 840.428 900.042 838.622C909.139 845.15 911.431 846.517 921.23 851.778C919.305 856.221 917.526 861.007 914.82 864.993C906.607 876.331 899.419 880.411 886.958 886.748C885.934 887.215 884.95 887.577 883.902 887.983C886.282 878.477 886.983 871.534 887.386 861.833C887.936 857.94 888.342 848.698 886.824 844.985C887.769 844.237 887.33 844.539 888.115 844.042Z"/><path fill="#EEFAF9" d="M888.115 844.042C891.78 842.981 896.513 840.428 900.042 838.622C909.139 845.15 911.431 846.517 921.23 851.778C919.305 856.221 917.526 861.007 914.82 864.993C910.524 857.108 899.074 859.248 890.079 858.577C889.953 851.338 889.928 851.026 888.115 844.042Z"/><path fill="#3C565E" d="M886.824 844.985C887.769 844.237 887.33 844.539 888.115 844.042C889.928 851.026 889.953 851.338 890.079 858.577C889.9 869.551 887.526 877.116 886.958 886.748C885.934 887.215 884.95 887.577 883.902 887.983C886.282 878.477 886.983 871.534 887.386 861.833C887.936 857.94 888.342 848.698 886.824 844.985Z"/><path fill="#EEFAF9" d="M886.824 844.985C888.342 848.698 887.936 857.94 887.386 861.833C885.239 857.221 877.357 861.819 873.552 863.322C868.65 865.261 863.631 866.892 858.525 868.205C853.715 869.424 846.976 871.684 842.202 873.377C833.562 876.442 825.012 876.905 816.44 878.868C815.902 875.66 815.389 874.563 814.588 871.552L814.368 870.703C815.945 870.109 817.362 869.524 819.012 869.166C842.005 864.183 866.087 856.102 886.824 844.985Z"/><path fill="#3C565E" d="M812.304 870.614C812.992 870.644 813.68 870.673 814.368 870.703L814.588 871.552C815.389 874.563 815.902 875.66 816.44 878.868C818.323 884.586 820.175 892.762 822.964 897.875C823.042 898.016 826.503 898.997 826.901 899.132C824.08 899.272 823.546 899.513 821.089 898.543C818.216 891.793 816.687 886.63 814.407 879.749C813.786 876.545 813.023 873.76 812.304 870.614Z"/><path fill="#7CEDBB" d="M515.638 781.911C518.263 783.847 534.245 799.671 537.498 802.783C516.871 826.487 504.414 811.293 486.261 796.926C490.895 805.33 500.259 810.2 501.097 821.098C502.459 838.822 486.061 845.996 471.145 847.519C464.453 839.9 459.481 834.814 451.64 828.516C454.379 833.202 458.042 838.614 461.023 843.233C475.059 867.39 455.097 880.398 432.021 880.526C431.099 834.775 479.087 800.374 515.638 781.911Z"/><path fill="white" d="M694.532 645.527C688.223 644.678 677.083 643.562 671.661 641.179C666.729 633.417 678.461 599.601 682.837 590.941C693.824 569.365 713.151 545.575 736.763 537.402C761.53 528.829 776.198 542.028 783.181 564.692L784.581 572.264C784.731 573.477 785.76 580.586 784.34 581.508C783.271 581.105 783.172 579.368 782.984 578.432L781.523 573.805C755.419 534.388 717.198 566.596 703.145 597.049C694.923 614.866 692.728 626.089 694.532 645.527Z"/><path fill="#99AAAF" d="M784.581 572.264C784.731 573.477 785.76 580.586 784.34 581.508C783.271 581.105 783.172 579.368 782.984 578.432C783.611 576.236 784.086 574.511 784.581 572.264Z"/><path fill="#10B6A9" d="M856.423 937.323C865.983 937.225 870.219 937.703 879.758 938.835C860.464 964.164 849.171 976.169 817.737 984.252C808.647 985.963 803.528 985.372 794.557 984.69C796.558 978.388 797.202 975.834 800.758 969.975C810.55 954.185 826.346 943.061 844.512 939.161C848.77 938.373 852.118 937.825 856.423 937.323Z"/><path fill="#7CEDBB" d="M1386.19 1252.02C1386.81 1245.95 1397.2 1243.08 1403.33 1239.3C1413.01 1233.36 1422.08 1226.48 1430.4 1218.75C1432.26 1217.02 1444.99 1204.26 1445.48 1204.07C1446.84 1204.76 1444.28 1209.25 1443.75 1210.06C1437.46 1231.53 1416.31 1264.7 1400.04 1279.63C1394.69 1279.18 1391.13 1279.06 1385.78 1278.96L1386.19 1252.02Z"/><path fill="#EEFAF9" d="M1386.19 1252.02C1386.81 1245.95 1397.2 1243.08 1403.33 1239.3C1413.01 1233.36 1422.08 1226.48 1430.4 1218.75C1432.26 1217.02 1444.99 1204.26 1445.48 1204.07C1446.84 1204.76 1444.28 1209.25 1443.75 1210.06L1442.3 1211.45C1439.02 1214.68 1434.66 1219.65 1431.72 1223.37C1425.51 1231.2 1395.83 1254.57 1386.19 1252.02Z"/><path fill="white" d="M556.795 865.019C571.603 871.217 579.498 871.104 594.77 867.789C598.864 878.445 602 885.877 606.706 896.209C608.397 898.453 612.652 907.192 614.171 910.038C597.527 906.418 581.737 900.583 570.279 887.159C563.299 880.503 560.438 873.491 556.795 865.019Z"/><path fill="#EEFAF9" d="M570.279 887.159C578.687 889.58 581.303 892.539 593.481 895.142L602.023 896.948C604.661 897.559 605.045 898.069 606.706 896.209C608.397 898.453 612.652 907.192 614.171 910.038C597.527 906.418 581.737 900.583 570.279 887.159Z"/><path fill="white" d="M579.5 835.972C589.741 836.25 590.883 855.131 593.435 863.745C583.554 864.896 580.84 865.162 570.666 864.935C560.625 863.027 551.9 862.841 558.332 849.217C562.177 841.071 571.469 838.462 579.5 835.972Z"/><path fill="white" d="M766.746 878.026C781.383 876.235 798.034 874.543 812.304 870.614C813.023 873.76 813.786 876.545 814.407 879.749C816.687 886.63 818.216 891.793 821.089 898.543C803.123 895.072 793.674 893.08 777.21 884.379C773.955 882.993 769.78 880.026 766.746 878.026Z"/><path fill="#EEFAF9" d="M766.746 878.026C781.383 876.235 798.034 874.543 812.304 870.614C813.023 873.76 813.786 876.545 814.407 879.749C809.03 879.95 780.742 882.54 777.21 884.379C773.955 882.993 769.78 880.026 766.746 878.026Z"/><path fill="white" d="M728.516 575.444C732.648 573.596 737.461 574.165 741.048 576.926C744.636 579.687 746.418 584.194 745.69 588.661C744.962 593.129 741.84 596.836 737.562 598.315C731.335 600.467 724.518 597.335 722.095 591.208C719.672 585.082 722.502 578.134 728.516 575.444Z"/><path fill="white" d="M733.735 606.441C735.221 605.746 736.966 605.904 738.303 606.856C739.64 607.807 740.362 609.403 740.193 611.035C740.024 612.667 738.99 614.082 737.486 614.739C735.202 615.736 732.542 614.712 731.515 612.442C730.488 610.171 731.478 607.497 733.735 606.441Z"/><path fill="#FCBA08" d="M702.162 265.871C712.599 265.315 718.043 273.899 726.91 280.013C760.244 279.149 761.164 275.129 746.859 307.95C748.547 312.8 756.888 330.45 755.329 333.532C749.72 344.614 734.579 332.557 722.969 340.622C720.093 343.231 710.924 352.858 708.48 353.747C698.452 357.391 695.604 333.532 693.215 327.589C690.046 325.348 673.466 315.118 672.803 314.205C666.479 305.509 687.906 296.306 694.262 290.964C696.473 281.425 696.566 273.203 702.162 265.871Z"/><path fill="#FCBA08" d="M1227.6 279.783C1240.54 279.796 1239.6 293.369 1243.69 304.597C1252.17 310.43 1276.77 319.712 1261 329.224C1255.45 332.572 1250.18 337.216 1245.6 341.807C1245.45 342.575 1245.32 343.346 1245.21 344.118C1244.36 349.75 1243.28 360.597 1240.57 365.309C1235.93 373.399 1225.52 361.26 1221.69 358.242C1220.22 357.298 1218.84 356.279 1217.33 355.387L1214.07 353.42C1208.76 353.951 1195.27 356.562 1191.24 356.409C1179.67 355.967 1190.58 331.359 1192 325.766C1175.89 295.112 1177.3 296.141 1210.61 295.96C1216.07 290.847 1222.07 284.5 1227.6 279.783Z"/><path fill="#063648" d="M595.972 1674.25C562.488 1673.7 527.437 1667.19 505.094 1639.48C500.573 1633.87 490.786 1617.85 490.234 1610.96L491.773 1609.41C494.233 1610.18 503.663 1622.31 506.975 1625.73C512.048 1631.02 517.55 1635.87 523.425 1640.24C545.888 1656.91 569.965 1665.05 596.778 1671.35C601.001 1672.08 602.697 1673.41 597.418 1674.06L595.972 1674.25Z"/><path fill="#3C565E" d="M596.778 1671.35C601.001 1672.08 602.697 1673.41 597.418 1674.06L595.972 1674.25C596.241 1673.29 596.509 1672.32 596.778 1671.35Z"/><path fill="#FCBA08" d="M637.566 350.42C646.89 353.217 645.645 361.85 656.143 364.543C659.614 365.434 669.686 365.333 670.377 369.475C670.255 375.828 663.805 377.405 660.435 384.321C655.799 393.836 661.414 396.936 654.944 404.854C646.294 398.161 644.651 389.84 631.987 388.745L627.999 388.423C616.499 387.603 624.722 379.354 629.358 375.613C637.845 368.765 633.511 358.581 637.566 350.42Z"/><path fill="#FCBA08" d="M1294.2 348.282C1303.21 352.871 1298.31 366.302 1309.01 371.04C1315.47 373.901 1324.14 380.179 1312.53 383.18C1300.29 386.343 1297.81 392.782 1292.33 402.762C1287.09 401.98 1284.47 398.128 1284.41 392.971C1284.27 380.473 1252.34 373.275 1276.46 367.745C1282.12 366.304 1286.84 362.4 1289.31 357.107C1290.81 353.884 1292.25 351.286 1294.2 348.282Z"/><path fill="#7045F4" d="M406.895 1267.21C418.827 1266.2 421.847 1267.47 429.783 1276.64C430.144 1283.3 430.175 1287.16 429.904 1293.83C426.6 1298.33 425.747 1299.93 420.8 1302.86L419.143 1303.86C412.767 1304.64 402.537 1304.83 399.188 1298.94C391.872 1286.08 394.631 1273.62 406.895 1267.21Z"/><path fill="#FCBA08" d="M1630.68 1140.23C1649.76 1138.36 1656.79 1153.77 1649.59 1170.71C1648.13 1174.16 1643.16 1176.08 1639.84 1177.35C1626.1 1178.71 1618.78 1175.65 1618.02 1160C1617.46 1148.39 1619.94 1144.59 1630.68 1140.23Z"/><path fill="#7045F4" d="M1720.1 974.165C1729.28 973.606 1740.67 974.16 1743.09 984.971C1745.71 996.604 1743.29 1004.49 1733.21 1010.21C1721.43 1012.54 1709.21 1008.36 1709.7 994.507L1710.22 982.572C1714.53 977.295 1714.21 977.435 1720.1 974.165Z"/><path fill="#F5402A" d="M321.639 1141.23C345.318 1144.61 344.646 1174.42 324.399 1179.22C321.038 1179.07 316.487 1179.39 313.597 1177.71C309.406 1175.26 306.435 1171.16 305.409 1166.41C302.143 1151.93 307.848 1143.81 321.639 1141.23Z"/><path fill="#ED47BA" d="M362.483 977.09C383.222 978.558 387.994 1007.13 365.936 1014.11C357.735 1013.91 348.76 1012.7 347.103 1003.51C344.077 986.721 347.801 980.193 362.483 977.09Z"/><path fill="#ED47BA" d="M1588.54 1006.16C1595.22 1006.35 1604.18 1008.42 1605.93 1015.5C1609.6 1030.34 1606.05 1037.8 1592.92 1042.04C1587.62 1041.78 1579.41 1040.5 1577.07 1035.47C1570.14 1020.55 1574.2 1010.2 1588.54 1006.16Z"/><path fill="#063648" d="M486.927 1651.32L488.668 1651.55C492.608 1652.05 496.233 1656.41 499.356 1659.07C520.337 1677.01 547.085 1686.44 574.023 1690.79C574.801 1690.92 577.006 1690.9 577.67 1691.37C577.862 1691.88 577.671 1692.41 577.582 1692.96C543.329 1699.51 499.793 1686.74 486.927 1651.32Z"/><path fill="#063648" d="M447.55 1422.82C448.381 1419.7 450.315 1417.2 452.091 1414.47C451.165 1420.48 450.483 1426.24 448.97 1432.15C448.904 1437.99 447.517 1444.56 447.178 1450.5C446.093 1469.49 445.981 1489.84 448.448 1508.7C448.626 1509.95 450.007 1516.74 448.316 1517.5C447.296 1517.05 446.99 1515.7 446.647 1514.75C433.393 1485.96 430.012 1450.68 447.55 1422.82Z"/><path fill="#163B47" d="M447.55 1422.82C448.381 1419.7 450.315 1417.2 452.091 1414.47C451.165 1420.48 450.483 1426.24 448.97 1432.15C448.915 1427.04 450.457 1426.73 447.55 1422.82Z"/><path fill="#3C565E" d="M448.448 1508.7C448.626 1509.95 450.007 1516.74 448.316 1517.5C447.296 1517.05 446.99 1515.7 446.647 1514.75C447.638 1512.2 447.845 1511.31 448.448 1508.7Z"/><path fill="#063648" d="M1527.17 1339.55L1529.33 1335.6C1554.82 1364.4 1558.5 1388.91 1549.71 1425.62C1545.93 1391.74 1540.75 1370.76 1527.17 1339.55Z"/><path fill="#FCBA08" d="M1299.73 267.488C1304.07 269.712 1304.4 275.6 1306.49 280.233L1307.28 281.952C1310.3 283.95 1325.07 290.599 1313.97 293.928C1304.07 296.898 1303.45 302.096 1298.21 309.832C1293.2 306.545 1291.71 299.563 1288.71 293.752C1276.86 285.865 1274.15 285.188 1290.43 280.699C1295.16 275.657 1296.01 273.164 1299.73 267.488Z"/><path fill="#12C7EA" d="M1501.22 1100.33C1509.27 1099.84 1516.22 1105.9 1516.84 1113.94C1517.46 1121.97 1511.52 1129.02 1503.49 1129.78C1498.18 1130.27 1493.02 1127.87 1489.98 1123.49C1486.94 1119.1 1486.5 1113.42 1488.83 1108.62C1491.16 1103.82 1495.9 1100.65 1501.22 1100.33Z"/><path fill="#F5402A" d="M1565.57 1234.23C1573.2 1231.45 1581.64 1235.39 1584.41 1243.02C1587.19 1250.66 1583.23 1259.09 1575.59 1261.85C1567.97 1264.6 1559.56 1260.66 1556.8 1253.05C1554.03 1245.43 1557.96 1237.01 1565.57 1234.23Z"/><path fill="#F67822" d="M494.916 1155.22C502.38 1152.81 510.388 1156.92 512.774 1164.39C515.159 1171.87 511.013 1179.86 503.527 1182.21C496.088 1184.55 488.159 1180.43 485.788 1173C483.418 1165.58 487.498 1157.63 494.916 1155.22Z"/><path fill="#7CEDBB" d="M438.62 1073.26C446.225 1071.95 453.459 1077.03 454.815 1084.63C456.171 1092.23 451.141 1099.49 443.553 1100.9C435.896 1102.32 428.548 1097.23 427.179 1089.56C425.811 1081.9 430.945 1074.58 438.62 1073.26Z"/><path fill="#F5402A" d="M546.182 1264.29C553.002 1261.38 560.899 1264.43 563.995 1271.17C567.091 1277.91 564.261 1285.89 557.611 1289.17C553.144 1291.37 547.831 1290.98 543.74 1288.13C539.649 1285.29 537.425 1280.45 537.932 1275.49C538.44 1270.54 541.599 1266.25 546.182 1264.29Z"/><path fill="#063648" d="M427.881 1435.68C428.019 1435.82 429.236 1436.91 429.261 1437.06C429.542 1438.72 428.278 1445.13 428.093 1446.5C426.06 1461.56 424.863 1476.8 426.081 1491.97C426.298 1494.67 428.234 1496.59 423.798 1495.72L422.616 1495.51C412.913 1472.51 412.75 1456.56 427.881 1435.68Z"/><path fill="#063648" d="M1551.79 1339.92C1568.49 1350.29 1576.02 1374.99 1571.24 1393.6L1570.33 1397.07C1565.46 1397.73 1565.24 1395.81 1566.07 1389.73C1567.51 1379.09 1550.86 1346.3 1551.79 1339.92Z"/><path fill="#FCBA08" d="M616.057 296.478C619.803 298.61 620.452 300.558 623.4 303.73C628.841 305.197 631.742 305.59 637.244 306.673C623.386 318.832 630.772 311.868 625.059 326.576C622.067 323.781 619.599 321.01 616.75 318.084C614.497 317.784 612.214 317.682 609.998 317.149L604.441 315.812C614.087 305.447 612.062 310.095 616.057 296.478Z"/><path fill="#163B47" d="M1520.98 1326.24C1522.95 1328.34 1528.08 1333.49 1529.33 1335.6L1527.17 1339.55C1525.13 1335.02 1523.1 1330.74 1520.98 1326.24Z"/></svg>